<svg width="501" height="105" viewBox="0 0 501 105" fill="none" xmlns="http://www.w3.org/2000/svg">
<path d="M73.8867 17.4675C78.0326 14.0837 85.3392 14.0399 91.8018 19.2819C98.2211 24.4891 103.75 34.9496 103.75 52.2809C103.75 69.4074 98.51 80.4719 92.1553 86.0446C86.0194 91.4252 78.8879 91.7258 73.8711 87.6833L73.3926 87.279L73.3877 87.2751L72.9854 86.9118C70.9898 85.0606 69.2844 82.7318 67.6455 80.1686C66.773 78.8041 65.9309 77.3921 65.0742 75.9606C64.2212 74.5354 63.3545 73.0912 62.4482 71.694C58.9502 66.301 54.692 61.315 47.6035 60.1442L46.9082 60.0436L46.9072 60.0427L46.4688 59.9929C41.968 59.5225 38.4088 60.6446 35.4658 62.6276C32.4741 64.6435 30.1658 67.5192 28.1396 70.3268C26.063 73.2045 24.3303 75.9277 22.3613 78.0085C20.4337 80.0455 18.4748 81.2427 16.0664 81.2429C10.1118 81.2429 6.41213 76.9684 4.14844 70.988C1.8927 65.0284 1.25004 57.7797 1.25 52.8151C1.25 47.7474 1.96646 41.8636 4.02344 37.2966C6.06038 32.7741 9.29981 29.7273 14.3906 29.7272C20.3744 29.7272 23.527 34.116 27.6201 39.1638C31.5424 44.0008 36.1948 49.1357 44.9639 48.7448L45.3838 48.7214H45.3906C54.407 48.1024 58.9419 42.0659 62.498 35.4997C63.3882 33.856 64.2313 32.1524 65.0664 30.4792C65.9057 28.7976 66.7394 27.1419 67.6279 25.5544C69.4074 22.3752 71.3623 19.5534 73.8867 17.4675Z" fill="url(#paint0_linear_48_2)" stroke="black" stroke-width="2.5"/>
<path d="M9 31C10.7014 31.7292 13.9583 32.75 19.5 31" stroke="black" stroke-width="2.5"/>
<path d="M3.64584 35.7292C8.38543 37.5521 16.0417 39.0104 25.8854 35.7292" stroke="black" stroke-width="2.5"/>
<path d="M1.82291 43.75C6.68402 45.3299 18.5208 47.5417 26.9792 43.75C28.6057 43.0208 32.8923 45.2569 33.5 45.5" stroke="black" stroke-width="2.5"/>
<path d="M0.729156 55.0521C6.92707 56.875 18.5937 59.0625 26.9792 55.0521C38.6587 49.4662 55.425 55.425 59.4271 59.4271C62.7083 62.7083 82.0312 69.6354 103.906 61.9791" stroke="black" stroke-width="2.5"/>
<path d="M31.7188 43.75C32.3264 48.2465 33.1771 58.9896 31.7188 65.9896" stroke="black" stroke-width="2.5"/>
<path d="M44.1146 48.4896V60.1563" stroke="black" stroke-width="2.5"/>
<path d="M53.5937 45.9375C52.743 49.4618 51.5521 57.6771 53.5937 62.3438" stroke="black" stroke-width="2.5"/>
<path d="M64.5313 31.3542C62.4653 39.4965 59.5729 59.7187 64.5313 75.4687" stroke="black" stroke-width="2.5"/>
<path d="M81.3021 15.3125C78.6285 21.7535 71.0938 27.7083 71.0938 49.9479C71.0937 77.2917 74.9375 90.5 81.5 90.5" stroke="black" stroke-width="2.5"/>
<path d="M81.6667 15.3125C83.4896 22.3611 83.125 39.3021 83.125 50.6771C83.125 64.8958 83.125 88.2292 81.6667 91.1458" stroke="black" stroke-width="2.5"/>
<path d="M81.3021 15.3125C84.2187 15.3125 95.8854 32.0833 95.8854 49.5833C95.8854 68.9063 93.4375 90.5 82.5 90.5" stroke="black" stroke-width="2.5"/>
<path d="M74.375 16.7708C76.684 18.1076 82.8333 19.9792 88.9583 16.7708" stroke="black" stroke-width="2.5"/>
<path d="M70.7292 20.0521C74.2535 21.632 83.7083 23.8438 93.3333 20.0521" stroke="black" stroke-width="2.5"/>
<path d="M66.3542 26.9792C70.9722 29.4097 83.8542 32.8125 98.4375 26.9792" stroke="black" stroke-width="2.5"/>
<path d="M63.4375 36.4583C67.3264 39.4965 80.5 43.75 102.083 36.4583" stroke="black" stroke-width="2.5"/>
<path d="M54.6875 44.8438C54.9306 48.0035 88.2292 53.9583 103.906 47.3958" stroke="black" stroke-width="2.5"/>
<path d="M63.0729 70.3646C70.3646 73.4028 88.3021 77.6563 101.719 70.3646" stroke="black" stroke-width="2.5"/>
<path d="M66.3542 78.75C71.0938 81.4236 83.7083 84.9167 98 78.5" stroke="black" stroke-width="2.5"/>
<path d="M2.1875 65.9896C6.31944 68.2986 18.375 71.0937 33.5417 63.8021" stroke="black" stroke-width="2.5"/>
<path d="M14.2188 29.1667C12.2744 33.4201 8.38546 44.3333 8.38546 53.9583C8.38546 65.9896 8.30207 81 14.5 81" stroke="black" stroke-width="2.5"/>
<path d="M14.2188 29.5312C16.5278 33.1771 21.1458 43.0937 21.1458 53.5937C21.1458 66.7187 20.3333 81 14.5 81" stroke="black" stroke-width="2.5"/>
<path d="M157.099 46.4858L152.206 47.8707C151.898 47.0552 151.444 46.2627 150.844 45.4933C150.259 44.7085 149.459 44.0621 148.444 43.5543C147.428 43.0465 146.128 42.7926 144.543 42.7926C142.373 42.7926 140.565 43.2927 139.118 44.293C137.687 45.2778 136.972 46.532 136.972 48.0554C136.972 49.4096 137.464 50.479 138.449 51.2638C139.434 52.0486 140.973 52.7027 143.065 53.2259L148.328 54.5185C151.498 55.2879 153.86 56.4651 155.414 58.0501C156.969 59.6197 157.746 61.6432 157.746 64.1207C157.746 66.152 157.161 67.9678 155.991 69.5682C154.837 71.1686 153.222 72.4304 151.144 73.3537C149.067 74.277 146.651 74.7386 143.896 74.7386C140.28 74.7386 137.287 73.9538 134.917 72.3842C132.547 70.8146 131.047 68.5218 130.416 65.5057L135.587 64.2131C136.079 66.1212 137.01 67.5523 138.38 68.5064C139.765 69.4605 141.573 69.9375 143.804 69.9375C146.343 69.9375 148.359 69.3989 149.852 68.3217C151.36 67.2292 152.114 65.9212 152.114 64.3977C152.114 63.1667 151.683 62.1357 150.821 61.3047C149.959 60.4583 148.636 59.8274 146.851 59.4119L140.942 58.027C137.695 57.2576 135.31 56.065 133.786 54.4492C132.278 52.8181 131.524 50.7791 131.524 48.3324C131.524 46.3319 132.086 44.5623 133.209 43.0234C134.348 41.4846 135.894 40.2766 137.849 39.3995C139.818 38.5224 142.05 38.0838 144.543 38.0838C148.051 38.0838 150.806 38.8532 152.806 40.392C154.822 41.9309 156.253 43.9621 157.099 46.4858ZM181.365 38.5455V43.1619H162.991V38.5455H181.365ZM168.346 30.0511H173.794V63.8438C173.794 65.3826 174.017 66.5367 174.463 67.3061C174.925 68.0601 175.51 68.5679 176.217 68.8295C176.941 69.0758 177.702 69.1989 178.503 69.1989C179.103 69.1989 179.595 69.1681 179.98 69.1065C180.365 69.0296 180.672 68.968 180.903 68.9219L182.011 73.8153C181.642 73.9538 181.126 74.0923 180.465 74.2308C179.803 74.3847 178.964 74.4616 177.949 74.4616C176.41 74.4616 174.902 74.1308 173.424 73.4691C171.963 72.8074 170.747 71.7995 169.777 70.4453C168.823 69.0911 168.346 67.383 168.346 65.321V30.0511ZM199.992 74.831C197.746 74.831 195.707 74.4078 193.875 73.5614C192.044 72.6997 190.59 71.4609 189.513 69.8452C188.436 68.214 187.897 66.2443 187.897 63.9361C187.897 61.9048 188.297 60.2583 189.097 58.9964C189.898 57.7192 190.967 56.719 192.306 55.9957C193.645 55.2725 195.122 54.7339 196.738 54.38C198.369 54.0107 200.008 53.7183 201.654 53.5028C203.809 53.2259 205.555 53.0181 206.894 52.8796C208.248 52.7257 209.233 52.4718 209.848 52.1179C210.479 51.764 210.795 51.1484 210.795 50.2713V50.0866C210.795 47.8092 210.172 46.0395 208.925 44.7777C207.694 43.5159 205.824 42.8849 203.316 42.8849C200.716 42.8849 198.677 43.4543 197.199 44.593C195.722 45.7318 194.683 46.9474 194.083 48.2401L188.913 46.3935C189.836 44.2391 191.067 42.5618 192.606 41.3615C194.16 40.1458 195.853 39.2995 197.684 38.8224C199.531 38.33 201.346 38.0838 203.131 38.0838C204.27 38.0838 205.578 38.2223 207.055 38.4993C208.548 38.7609 209.987 39.3072 211.372 40.1381C212.772 40.9691 213.934 42.2232 214.857 43.9006C215.781 45.5779 216.242 47.8246 216.242 50.6406V74H210.795V69.1989H210.518C210.149 69.9683 209.533 70.7915 208.671 71.6687C207.81 72.5458 206.663 73.2921 205.232 73.9077C203.801 74.5232 202.054 74.831 199.992 74.831ZM200.823 69.9375C202.978 69.9375 204.793 69.5143 206.271 68.668C207.763 67.8216 208.887 66.729 209.641 65.3903C210.41 64.0515 210.795 62.6435 210.795 61.1662V56.1804C210.564 56.4574 210.056 56.7113 209.271 56.9421C208.502 57.1576 207.609 57.3499 206.594 57.5192C205.594 57.6731 204.616 57.8116 203.662 57.9347C202.724 58.0424 201.962 58.1347 201.377 58.2116C199.962 58.3963 198.638 58.6964 197.407 59.1119C196.191 59.512 195.207 60.1198 194.453 60.9354C193.714 61.7356 193.345 62.8281 193.345 64.2131C193.345 66.1058 194.045 67.5369 195.445 68.5064C196.861 69.4605 198.653 69.9375 200.823 69.9375ZM231.263 61.0739L231.171 54.3338H232.279L247.79 38.5455H254.53L238.003 55.2571H237.542L231.263 61.0739ZM226.185 74V26.7273H231.632V74H226.185ZM248.713 74L234.864 56.4574L238.742 52.6719L255.638 74H248.713ZM274.947 74.7386C271.53 74.7386 268.584 73.9846 266.106 72.4766C263.644 70.9531 261.743 68.8295 260.405 66.1058C259.081 63.3667 258.42 60.1813 258.42 56.5497C258.42 52.9181 259.081 49.7173 260.405 46.9474C261.743 44.1622 263.605 41.9924 265.991 40.4382C268.391 38.8686 271.192 38.0838 274.393 38.0838C276.239 38.0838 278.063 38.3916 279.863 39.0071C281.664 39.6226 283.302 40.6229 284.78 42.0078C286.257 43.3774 287.434 45.1932 288.311 47.4553C289.188 49.7173 289.627 52.5026 289.627 55.8111V58.1193H262.297V53.4105H284.087C284.087 51.41 283.687 49.625 282.887 48.0554C282.102 46.4858 280.979 45.247 279.517 44.3391C278.07 43.4312 276.362 42.9773 274.393 42.9773C272.223 42.9773 270.345 43.5159 268.76 44.593C267.191 45.6548 265.983 47.0398 265.137 48.7479C264.29 50.456 263.867 52.2872 263.867 54.2415V57.3807C263.867 60.0582 264.329 62.328 265.252 64.19C266.191 66.0366 267.491 67.4446 269.153 68.4141C270.815 69.3681 272.746 69.8452 274.947 69.8452C276.378 69.8452 277.67 69.6451 278.824 69.245C279.994 68.8295 281.002 68.214 281.848 67.3984C282.695 66.5675 283.349 65.5365 283.81 64.3054L289.073 65.7827C288.519 67.5677 287.588 69.1373 286.28 70.4915C284.972 71.8303 283.356 72.8767 281.433 73.6307C279.509 74.3693 277.347 74.7386 274.947 74.7386ZM311.301 74.7386C308.347 74.7386 305.738 73.9923 303.476 72.4996C301.214 70.9916 299.445 68.868 298.167 66.1289C296.89 63.3744 296.252 60.1198 296.252 56.3651C296.252 52.6411 296.89 49.4096 298.167 46.6705C299.445 43.9313 301.222 41.8155 303.499 40.3228C305.777 38.8301 308.408 38.0838 311.394 38.0838C313.702 38.0838 315.525 38.4685 316.864 39.2379C318.218 39.992 319.249 40.8537 319.957 41.8232C320.68 42.7772 321.242 43.562 321.642 44.1776H322.104V26.7273H327.551V74H322.289V68.5526H321.642C321.242 69.1989 320.673 70.0144 319.934 70.9993C319.195 71.9687 318.141 72.8382 316.772 73.6076C315.402 74.3616 313.579 74.7386 311.301 74.7386ZM312.04 69.8452C314.225 69.8452 316.072 69.2758 317.58 68.1371C319.088 66.983 320.234 65.3903 321.019 63.359C321.804 61.3124 322.196 58.9503 322.196 56.2727C322.196 53.6259 321.811 51.31 321.042 49.3249C320.273 47.3245 319.134 45.7702 317.626 44.6623C316.118 43.5389 314.256 42.9773 312.04 42.9773C309.732 42.9773 307.808 43.5697 306.269 44.7546C304.746 45.9241 303.599 47.5168 302.83 49.5327C302.076 51.5331 301.699 53.7798 301.699 56.2727C301.699 58.7964 302.084 61.0893 302.853 63.1513C303.638 65.1979 304.792 66.8291 306.316 68.0447C307.854 69.245 309.762 69.8452 312.04 69.8452Z" fill="black"/>
<path d="M353.341 52.9489V74H346.439V26.7273H353.249V44.316H353.687C354.518 42.4079 355.788 40.8922 357.496 39.7688C359.204 38.6455 361.435 38.0838 364.19 38.0838C366.621 38.0838 368.745 38.5839 370.561 39.5842C372.392 40.5844 373.808 42.0771 374.808 44.0621C375.823 46.0318 376.331 48.494 376.331 51.4485V74H369.43V52.2795C369.43 49.6789 368.76 47.663 367.421 46.2319C366.083 44.7854 364.221 44.0621 361.835 44.0621C360.204 44.0621 358.742 44.4084 357.45 45.1009C356.173 45.7933 355.165 46.8089 354.426 48.1477C353.703 49.4711 353.341 51.0715 353.341 52.9489ZM388.634 87.2955C387.603 87.2955 386.664 87.2108 385.818 87.0415C384.972 86.8877 384.341 86.7184 383.925 86.5337L385.587 80.8786C386.849 81.2171 387.972 81.3633 388.957 81.3171C389.942 81.271 390.812 80.9016 391.566 80.2092C392.335 79.5167 393.012 78.3857 393.597 76.8161L394.451 74.4616L381.479 38.5455H388.865L397.844 66.0597H398.213L407.192 38.5455H414.602L399.991 78.7319C399.314 80.5785 398.452 82.1404 397.405 83.4176C396.359 84.7102 395.113 85.6797 393.666 86.326C392.22 86.9723 390.542 87.2955 388.634 87.2955ZM421.088 87.2955V38.5455H427.828V44.293H428.405C428.805 43.5543 429.382 42.7003 430.136 41.7308C430.89 40.7614 431.937 39.915 433.275 39.1918C434.614 38.4531 436.384 38.0838 438.584 38.0838C441.447 38.0838 444.001 38.8071 446.248 40.2536C448.494 41.7 450.256 43.7852 451.534 46.5089C452.826 49.2326 453.473 52.5103 453.473 56.342C453.473 60.1737 452.834 63.459 451.557 66.1982C450.279 68.9219 448.525 71.0224 446.294 72.4996C444.063 73.9615 441.516 74.6925 438.654 74.6925C436.499 74.6925 434.737 74.3308 433.368 73.6076C432.014 72.8844 430.952 72.038 430.182 71.0685C429.413 70.0991 428.821 69.2373 428.405 68.4833H427.99V87.2955H421.088ZM427.851 56.2727C427.851 58.7656 428.213 60.9508 428.936 62.8281C429.659 64.7055 430.706 66.1751 432.075 67.2369C433.445 68.2833 435.122 68.8065 437.107 68.8065C439.169 68.8065 440.893 68.2602 442.278 67.1676C443.662 66.0597 444.709 64.5593 445.417 62.6665C446.14 60.7738 446.502 58.6425 446.502 56.2727C446.502 53.9337 446.148 51.8332 445.44 49.9712C444.747 48.1093 443.701 46.6397 442.301 45.5625C440.916 44.4853 439.185 43.9467 437.107 43.9467C435.107 43.9467 433.414 44.4622 432.029 45.4933C430.659 46.5243 429.621 47.9631 428.913 49.8097C428.205 51.6562 427.851 53.8106 427.851 56.2727ZM476.486 74.7156C472.993 74.7156 469.984 73.9692 467.46 72.4766C464.952 70.9685 463.013 68.8526 461.644 66.1289C460.29 63.3898 459.612 60.1813 459.612 56.5035C459.612 52.8719 460.29 49.6712 461.644 46.9013C463.013 44.1314 464.921 41.9693 467.368 40.4151C469.83 38.8609 472.708 38.0838 476.001 38.0838C478.001 38.0838 479.94 38.4147 481.818 39.0763C483.695 39.738 485.38 40.7768 486.873 42.1925C488.365 43.6082 489.543 45.4471 490.404 47.7092C491.266 49.9558 491.697 52.6873 491.697 55.9034V58.3501H463.513V53.1797H484.934C484.934 51.3639 484.564 49.7558 483.826 48.3555C483.087 46.9397 482.049 45.8241 480.71 45.0085C479.386 44.1929 477.832 43.7852 476.047 43.7852C474.108 43.7852 472.415 44.2622 470.969 45.2163C469.538 46.1549 468.43 47.386 467.645 48.9094C466.876 50.4175 466.491 52.0563 466.491 53.826V57.8654C466.491 60.2352 466.906 62.2511 467.737 63.913C468.584 65.5749 469.761 66.8445 471.269 67.7216C472.777 68.5833 474.539 69.0142 476.555 69.0142C477.863 69.0142 479.055 68.8295 480.133 68.4602C481.21 68.0755 482.141 67.5062 482.926 66.7521C483.71 65.9981 484.311 65.0671 484.726 63.9592L491.258 65.1364C490.735 67.0599 489.796 68.7449 488.442 70.1914C487.104 71.6225 485.419 72.7382 483.387 73.5384C481.371 74.3232 479.071 74.7156 476.486 74.7156Z" fill="black"/>
<defs>
<linearGradient id="paint0_linear_48_2" x1="45.5729" y1="91.875" x2="46.6667" y2="13.8542" gradientUnits="userSpaceOnUse">
<stop stop-color="#97FCCB"/>
<stop offset="1" stop-color="#97FBFC"/>
</linearGradient>
</defs>
</svg>
